<?xml version="1.0" encoding="iso-8859-1"?>
<!-- Generator: Adobe Illustrator 19.0.0, SVG Export Plug-In . SVG Version: 6.00 Build 0)  -->
<svg version="1.1" id="Layer_1" xmlns="http://www.w3.org/2000/svg" xmlns:xlink="http://www.w3.org/1999/xlink" x="0px" y="0px"
	 viewBox="0 0 512 512" style="enable-background:new 0 0 512 512;" xml:space="preserve">
<g>
	<g>
		<g>
			<path style="fill:#231F20;" d="M388.226,0H123.774C76.607,0,38.233,38.374,38.233,85.541v215.933
				c0,47.167,38.374,85.541,85.541,85.541h44.257l-8.725,103.57c-1.454,17.244,18.352,27.698,31.795,17.234l155.205-120.804h41.92
				c47.167,0,85.541-38.373,85.541-85.541V85.541C473.766,38.374,435.393,0,388.226,0z M434.286,301.474
				c0,25.398-20.663,46.06-46.06,46.06H339.53c-4.393,0-8.659,1.465-12.124,4.163L202.432,448.97l5.219-61.955h16.946
				c10.902,0,19.74-8.838,19.74-19.74c0-10.902-8.838-19.74-19.74-19.74c-14.152,0-92.814,0-100.823,0
				c-25.398,0-46.06-20.663-46.06-46.06V85.541c0-25.398,20.663-46.06,46.06-46.06h264.452c25.398,0,46.06,20.663,46.06,46.06
				V301.474z"/>
			<path style="fill:#231F20;" d="M299.066,151.645h-22.238c-2.907,0-5.264-2.357-5.264-5.264v-11.47h0
				c0-8.162,5.439-10.053,9.259-10.053h18.212c2.907,0,5.264-2.357,5.264-5.264V94.235c0-2.899-2.344-5.252-5.243-5.264
				l-27.091-0.109c-35.888,0-44.043,26.741-44.043,43.869v13.65c0,2.907-2.357,5.264-5.264,5.264h-10.225
				c-2.907,0-5.264,2.357-5.264,5.264v31.332c0,2.907,2.357,5.264,5.264,5.264h10.395c2.907,0,5.264,2.357,5.264,5.264v94.12
				c0,2.907,2.357,5.264,5.264,5.264h31.332c2.907,0,5.264-2.357,5.264-5.264v-94.12c0-2.907,2.357-5.264,5.264-5.264h20.996
				c2.721,0,4.996-2.075,5.242-4.786l2.856-31.332C304.591,154.303,302.163,151.645,299.066,151.645z"/>
		</g>
	</g>
</g>
<g>
</g>
<g>
</g>
<g>
</g>
<g>
</g>
<g>
</g>
<g>
</g>
<g>
</g>
<g>
</g>
<g>
</g>
<g>
</g>
<g>
</g>
<g>
</g>
<g>
</g>
<g>
</g>
<g>
</g>
</svg>
