<?xml version="1.0" encoding="iso-8859-1"?>
<!-- Generator: Adobe Illustrator 19.0.0, SVG Export Plug-In . SVG Version: 6.00 Build 0)  -->
<svg version="1.1" id="Layer_1" xmlns="http://www.w3.org/2000/svg" xmlns:xlink="http://www.w3.org/1999/xlink" x="0px" y="0px"
	 viewBox="0 0 512 512" style="enable-background:new 0 0 512 512;" xml:space="preserve">
<g>
	<g>
		<path style="fill:#231F20;" d="M388.225,0H123.774C76.607,0,38.233,38.374,38.233,85.541v215.933
			c0,47.167,38.374,85.541,85.541,85.541h44.257l-8.725,103.57c-1.454,17.244,18.35,27.699,31.795,17.234l155.205-120.804h41.92
			c47.167,0,85.541-38.373,85.541-85.541V85.541C473.765,38.374,435.392,0,388.225,0z M304.308,157.387l-2.856,31.332
			c-0.247,2.711-2.52,4.786-5.242,4.786h-20.996c-2.907,0-5.264,2.357-5.264,5.264v94.12c0,2.907-2.357,5.264-5.264,5.264h-31.332
			c-2.907,0-5.264-2.357-5.264-5.264v-94.12c0-2.907-2.357-5.264-5.264-5.264h-10.395c-2.907,0-5.264-2.357-5.264-5.264v-31.332
			c0-2.907,2.357-5.264,5.264-5.264h10.225c2.907,0,5.264-2.357,5.264-5.264v-13.65c0-17.128,8.155-43.869,44.043-43.869
			l27.091,0.109c2.899,0.012,5.243,2.365,5.243,5.264v25.358c0,2.907-2.357,5.264-5.264,5.264h-18.212
			c-3.82,0-9.259,1.891-9.259,10.053v11.47c0,2.907,2.357,5.264,5.264,5.264h22.238C302.16,151.645,304.588,154.303,304.308,157.387
			z"/>
	</g>
</g>
<g>
</g>
<g>
</g>
<g>
</g>
<g>
</g>
<g>
</g>
<g>
</g>
<g>
</g>
<g>
</g>
<g>
</g>
<g>
</g>
<g>
</g>
<g>
</g>
<g>
</g>
<g>
</g>
<g>
</g>
</svg>
