<?xml version="1.0" encoding="iso-8859-1"?>
<!-- Generator: Adobe Illustrator 19.0.0, SVG Export Plug-In . SVG Version: 6.00 Build 0)  -->
<svg version="1.1" id="Layer_1" xmlns="http://www.w3.org/2000/svg" xmlns:xlink="http://www.w3.org/1999/xlink" x="0px" y="0px"
	 viewBox="0 0 512 512" style="enable-background:new 0 0 512 512;" xml:space="preserve">
<path style="fill:#2D527C;" d="M256.045,512c-0.69,0-1.373-0.002-2.063-0.007c-68.255-0.527-132.151-27.332-179.917-75.48
	C26.304,388.367,0,324.261,0,256C0,114.859,114.827,0.018,255.967,0c0.009,0,0.025,0,0.034,0
	c67.746,0,131.572,26.126,179.739,73.573c48.179,47.46,75.252,110.905,76.233,178.645c0.609,42.102-9.164,83.783-28.307,120.942
	l21.025,78.467c2.054,7.664-0.155,15.91-5.766,21.52s-13.858,7.818-21.52,5.766l-58.818-15.761
	c-7.961-2.133-12.686-10.318-10.553-18.28s10.318-12.689,18.28-10.554l46.151,12.367l-19.15-71.471
	c-0.993-3.704-0.521-7.649,1.316-11.015c18.552-33.978,28.059-72.552,27.495-111.553C480.35,129.797,378.906,29.85,256,29.85
	c-0.015,0-0.013,0-0.028,0C131.288,29.866,29.85,131.316,29.85,256c0,123.74,100.648,225.187,224.362,226.144
	c35.669,0.261,69.874-7.522,101.622-23.176c7.392-3.642,16.341-0.607,19.988,6.786c3.645,7.394,0.607,16.341-6.786,19.988
	C333.689,503.169,295.681,511.998,256.045,512z"/>
<path style="fill:#CEE8FA;" d="M262.403,378.387c6.801,0,12.315-5.513,12.315-12.315v-89.065h30.434
	c6.368,0,11.686-4.855,12.264-11.197l2.873-31.531c0.657-7.213-5.021-13.433-12.264-13.433H276.88V189.44
	c0-10.949,7.297-13.486,12.424-13.486h19.182c6.801,0,12.315-5.513,12.315-12.315v-23.538c0-6.782-5.483-12.288-12.265-12.315
	l-31.116-0.125c-48.147,0-59.088,35.877-59.088,58.855v34.331h-15.53c-6.801,0-12.315,5.513-12.315,12.315v31.531
	c0,6.801,5.513,12.315,12.315,12.315h15.756v91.755c0,5.316,4.31,9.627,9.627,9.627h34.219v-0.003H262.403z"/>
<path style="fill:#2D527C;" d="M262.403,393.312h-34.219c-13.537,0-24.552-11.013-24.552-24.552v-76.83h-0.831
	c-15.019,0-27.24-12.221-27.24-27.24v-31.53c0-15.019,12.221-27.24,27.24-27.24h0.603v-19.406c0-34.035,19.383-73.78,74.013-73.78
	l31.177,0.125c14.959,0.061,27.129,12.282,27.129,27.24v23.538c0,15.019-12.221,27.24-27.24,27.24h-16.679v15.043h16.219
	c7.636,0,14.968,3.234,20.116,8.873c5.149,5.639,7.704,13.234,7.012,20.838l-2.875,31.529
	c-1.287,14.119-12.949,24.768-27.126,24.768h-15.51v74.14C289.643,381.091,277.422,393.312,262.403,393.312z M233.483,363.462
	h26.308v-86.455c0-8.243,6.682-14.925,14.925-14.925h28.05l2.398-26.31h-28.286c-8.243,0-14.925-6.682-14.925-14.925V189.44
	c0-19.52,14.177-28.411,27.349-28.411h16.571v-18.328l-28.516-0.115c-38.366,0-44.103,27.523-44.103,43.93v34.331
	c0,8.243-6.682,14.925-14.925,14.925h-12.918v26.31h13.146c8.243,0,14.925,6.682,14.925,14.925v86.455H233.483z"/>
<g>
</g>
<g>
</g>
<g>
</g>
<g>
</g>
<g>
</g>
<g>
</g>
<g>
</g>
<g>
</g>
<g>
</g>
<g>
</g>
<g>
</g>
<g>
</g>
<g>
</g>
<g>
</g>
<g>
</g>
</svg>
