<?xml version="1.0" encoding="iso-8859-1"?>
<!-- Generator: Adobe Illustrator 19.0.0, SVG Export Plug-In . SVG Version: 6.00 Build 0)  -->
<svg version="1.1" id="Layer_1" xmlns="http://www.w3.org/2000/svg" xmlns:xlink="http://www.w3.org/1999/xlink" x="0px" y="0px"
	 viewBox="0 0 512.001 512.001" style="enable-background:new 0 0 512.001 512.001;" xml:space="preserve">
<g>
	<g>
		<path d="M470.916,9.496c-6.237-9.756-15.878-9.655-37.016-9.439l-51.79,0.202c-9.374,0.516-17.484,4.898-24.106,13.023
			c-0.366,0.449-0.693,0.928-0.977,1.432L197.034,298.252c-1.737,3.078-1.757,6.836-0.051,9.932l104.806,190.204
			c0.035,0.061,0.068,0.12,0.103,0.18c4.277,7.404,9.866,9.431,12.985,10.064c7.756,1.573,23.582,2.895,31.486,3.28
			c5.366,0.261,21.492-0.142,21.492-0.142c21.391-0.013,41.565,0.026,47.585-13.09c3.69-8.041,0.505-16.599-2.211-22.335
			l-94.775-173.774l153.874-273.66C477.065,19.134,472.76,12.385,470.916,9.496z M297.908,297.5
			c-1.723,3.061-1.747,6.797-0.064,9.882l97.069,177.943c0.892,1.915,1.342,3.242,1.568,4.112c-5.719,1.954-20.91,1.951-28.615,1.94
			l-1.725-0.001c-3.561,0-7.072,0.038-10.505,0.074c-13.549,0.145-26.335,0.285-34.449-2.214l-0.353-0.108
			c-0.325-0.099-0.74-0.226-1.003-0.319c-0.058-0.083-0.14-0.204-0.24-0.372L217.59,303.322L374.329,25.552
			c2.816-3.258,5.513-4.742,8.904-4.93l70.243,0.242L297.908,297.5z"/>
	</g>
</g>
<g>
	<g>
		<path d="M233.093,200.571l-45.279-78.749c-5.376-10.229-12.739-24.241-30.319-24.478c-0.046-0.001-0.093-0.001-0.139-0.001
			l-74.277,0.104c-9.586,1.374-15.261,5.832-16.865,13.247c-0.036,0.166-0.068,0.332-0.096,0.5
			c-1.824,11.077,5.127,22.914,9.729,30.748l37.239,63.715L45.367,325.04c-4.691,7.975-10.531,17.9-6.487,26.546
			c3.932,8.402,11.639,11.973,17.797,11.972l75.366-0.103c17.413-2.12,22.347-11.633,30.521-27.394l70.451-125.684
			C234.715,207.337,234.744,203.639,233.093,200.571z M144.459,326.671c-7.7,14.849-8.574,15.733-14.28,16.464H58.731l75.429-136.53
			l-47.518-88.868h70.634c4.624,0.091,7.183,3.486,12.484,13.573l42.706,74.024L144.459,326.671z"/>
	</g>
</g>
<g>
	<g>
		<path d="M341.672,132.912c-4.878-2.817-11.113-1.149-13.932,3.726l-3.536,6.119c-2.819,4.875-1.149,11.113,3.726,13.932
			c1.607,0.928,3.361,1.371,5.093,1.371c3.523,0,6.951-1.827,8.839-5.097l3.537-6.119
			C348.217,141.969,346.547,135.731,341.672,132.912z"/>
	</g>
</g>
<g>
	<g>
		<path d="M322.3,166.566c-4.877-2.821-11.113-1.153-13.934,3.72l-71.383,123.391c-2.821,4.875-1.154,11.113,3.72,13.934
			c1.608,0.93,3.364,1.373,5.097,1.373c3.521,0,6.947-1.826,8.837-5.093L326.021,180.5
			C328.841,175.625,327.175,169.387,322.3,166.566z"/>
	</g>
</g>
<g>
</g>
<g>
</g>
<g>
</g>
<g>
</g>
<g>
</g>
<g>
</g>
<g>
</g>
<g>
</g>
<g>
</g>
<g>
</g>
<g>
</g>
<g>
</g>
<g>
</g>
<g>
</g>
<g>
</g>
</svg>
