<?xml version="1.0" encoding="iso-8859-1"?>
<!-- Generator: Adobe Illustrator 19.0.0, SVG Export Plug-In . SVG Version: 6.00 Build 0)  -->
<svg version="1.1" id="Layer_1" xmlns="http://www.w3.org/2000/svg" xmlns:xlink="http://www.w3.org/1999/xlink" x="0px" y="0px"
	 viewBox="0 0 420 420" style="enable-background:new 0 0 420 420;" xml:space="preserve">
<g>
	<g>
		<g>
			<path d="M418.592,12.383C416.788,9.355,413.524,7.5,410,7.5h-95c-3.58,0-6.888,1.914-8.671,5.019l-135,235
				c-1.806,3.143-1.77,7.018,0.096,10.126l90,150c1.808,3.012,5.063,4.855,8.575,4.855h100c3.63,0,6.975-1.967,8.739-5.139
				c1.764-3.172,1.671-7.051-0.243-10.135l-86.938-140.068L418.793,22.263C420.472,19.164,420.395,15.411,418.592,12.383z
				 M271.207,252.737c-1.71,3.156-1.597,6.986,0.297,10.036l80.52,129.727h-76.361l-84.066-140.11L320.788,27.5h72.423
				L271.207,252.737z"/>
			<path d="M178.85,172.843l-50-95c-1.729-3.286-5.137-5.343-8.85-5.343H30c-3.428,0-6.617,1.756-8.45,4.652
				c-1.833,2.897-2.055,6.531-0.587,9.628l42.779,90.313L1.294,287.58c-1.749,3.096-1.724,6.888,0.068,9.96
				c1.793,3.072,5.081,4.96,8.638,4.96h95c3.605,0,6.932-1.941,8.706-5.08l65-115C180.379,179.46,180.433,175.852,178.85,172.843z
				 M99.165,282.5H27.139l56.567-100.08c1.6-2.831,1.724-6.263,0.331-9.201L45.802,92.5h68.161l44.646,84.829L99.165,282.5z"/>
		</g>
	</g>
</g>
<g>
</g>
<g>
</g>
<g>
</g>
<g>
</g>
<g>
</g>
<g>
</g>
<g>
</g>
<g>
</g>
<g>
</g>
<g>
</g>
<g>
</g>
<g>
</g>
<g>
</g>
<g>
</g>
<g>
</g>
</svg>
